<?xml version="1.0" encoding="UTF-8" standalone="no"?>
<!-- Created with Inkscape (http://www.inkscape.org/) -->

<svg
   width="111.39534mm"
   height="22.030605mm"
   viewBox="0 0 111.39534 22.030605"
   version="1.1"
   id="svg5"
   inkscape:version="1.1 (c4e8f9e, 2021-05-24)"
   sodipodi:docname="logo-large.svg"
   xmlns:inkscape="http://www.inkscape.org/namespaces/inkscape"
   xmlns:sodipodi="http://sodipodi.sourceforge.net/DTD/sodipodi-0.dtd"
   xmlns="http://www.w3.org/2000/svg"
   xmlns:svg="http://www.w3.org/2000/svg">
  <sodipodi:namedview
     id="namedview7"
     pagecolor="#505050"
     bordercolor="#eeeeee"
     borderopacity="1"
     inkscape:pageshadow="0"
     inkscape:pageopacity="0"
     inkscape:pagecheckerboard="0"
     inkscape:document-units="mm"
     showgrid="false"
     showborder="true"
     inkscape:snap-global="false"
     inkscape:zoom="1.5100033"
     inkscape:cx="243.37695"
     inkscape:cy="11.589379"
     inkscape:window-width="1600"
     inkscape:window-height="847"
     inkscape:window-x="1920"
     inkscape:window-y="127"
     inkscape:window-maximized="0"
     inkscape:current-layer="g7779" />
  <defs
     id="defs2" />
  <g
     inkscape:label="Layer 1"
     inkscape:groupmode="layer"
     id="layer1"
     transform="translate(-171.02145,-117.85034)">
    <g
       aria-label="ScrapBook"
       id="text2013"
       style="font-size:12.2259px;line-height:1.25;font-family:'Nunito Sans';-inkscape-font-specification:'Nunito Sans';stroke-width:0.305647">
      <g
         id="g7779"
         transform="translate(-0.62878559,-2.110923)">
        <g
           id="g15377">
          <path
             d="m 178.48573,137.33419 q -1.90276,0 -3.4387,-0.48142 -1.53595,-0.50433 -2.65925,-1.44423 l 0.66482,-1.51302 q 1.16914,0.89406 2.45293,1.32962 1.28376,0.43556 2.9802,0.43556 2.06319,0 3.04897,-0.75651 1.00867,-0.77944 1.00867,-2.04028 0,-1.0087 -0.73358,-1.60472 -0.71067,-0.59605 -2.40709,-0.93992 l -2.38414,-0.48142 q -2.15492,-0.45848 -3.23238,-1.49009 -1.05453,-1.05452 -1.05453,-2.79679 0,-1.44425 0.73358,-2.52172 0.75651,-1.07744 2.08613,-1.67349 1.32965,-0.59603 3.07191,-0.59603 1.62764,0 3.02604,0.52725 1.39839,0.50436 2.36123,1.46717 l -0.6648,1.4672 q -1.03161,-0.93992 -2.17785,-1.35257 -1.14622,-0.43556 -2.56756,-0.43556 -1.81104,0 -2.88848,0.84821 -1.07747,0.82529 -1.07747,2.20077 0,1.10038 0.66483,1.74226 0.68774,0.64188 2.22368,0.9399 l 2.38415,0.50436 q 2.3154,0.48141 3.41576,1.46717 1.12332,0.96283 1.12332,2.63632 0,1.35254 -0.73359,2.38415 -0.71066,1.03161 -2.06322,1.60472 -1.32963,0.57311 -3.16358,0.57311 z"
             id="path14045"
             style="font-size:10.5833px;fill:#ff9d57;fill-opacity:1;stroke:#ff9d57;stroke-width:1.47512;stroke-linecap:round;stroke-linejoin:round;stroke-opacity:1" />
          <path
             d="m 191.9211,137.33419 q -1.67349,0 -2.8885,-0.71066 -1.21499,-0.73357 -1.87982,-2.04028 -0.64188,-1.32962 -0.64188,-3.09482 0,-2.65925 1.44425,-4.17228 1.44426,-1.53594 3.96595,-1.53594 1.03161,0 2.04028,0.36679 1.0087,0.3668 1.6735,1.03161 l -0.64189,1.35256 q -0.66482,-0.64191 -1.46717,-0.93992 -0.77943,-0.29801 -1.49011,-0.29801 -1.74226,0 -2.68216,1.10038 -0.93992,1.07744 -0.93992,3.11775 0,1.99442 0.93992,3.16358 0.9399,1.14624 2.68216,1.14624 0.71068,0 1.49011,-0.29804 0.80235,-0.29801 1.46717,-0.96283 l 0.64189,1.35256 q -0.6648,0.6648 -1.69641,1.05452 -1.00869,0.36679 -2.01737,0.36679 z"
             id="path14047"
             style="font-size:10.5833px;fill:#ff9d57;fill-opacity:1;stroke:#ff9d57;stroke-width:1.47512;stroke-linecap:round;stroke-linejoin:round;stroke-opacity:1" />
          <path
             d="m 197.81021,137.12787 v -11.14134 h 1.81105 v 1.99445 q 0.89406,-2.01737 3.66793,-2.22369 l 0.6648,-0.0689 0.13755,1.60472 -1.16916,0.13755 q -1.58178,0.13754 -2.40706,1.00867 -0.82529,0.84822 -0.82529,2.33831 v 6.3501 z"
             id="path14049"
             style="font-size:10.5833px;fill:#ff9d57;fill-opacity:1;stroke:#ff9d57;stroke-width:1.47512;stroke-linecap:round;stroke-linejoin:round;stroke-opacity:1" />
          <path
             d="m 209.90628,137.33419 q -1.14624,0 -2.06322,-0.43556 -0.89406,-0.4585 -1.42134,-1.23793 -0.52725,-0.77943 -0.52725,-1.74227 0,-1.21499 0.61897,-1.92567 0.64188,-0.71066 2.08613,-1.00867 1.46717,-0.32095 3.98887,-0.32095 h 0.7336 v -0.71066 q 0,-1.42131 -0.59605,-2.04028 -0.57311,-0.6419 -1.8569,-0.6419 -1.00867,0 -1.94859,0.29803 -0.93989,0.2751 -1.92565,0.91698 l -0.6419,-1.35254 q 0.87114,-0.61897 2.10907,-0.98577 1.26085,-0.36679 2.40707,-0.36679 2.15491,0 3.18652,1.05453 1.05453,1.05452 1.05453,3.27821 v 7.01492 h -1.74227 v -1.92565 q -0.43556,0.98575 -1.35254,1.55886 -0.89406,0.57311 -2.10905,0.57311 z m 0.29801,-1.39839 q 1.37548,0 2.2466,-0.9399 0.87115,-0.96284 0.87115,-2.43001 v -0.68774 h -0.71068 q -1.85688,0 -2.93434,0.18347 -1.05453,0.16051 -1.49009,0.59605 -0.41264,0.41264 -0.41264,1.14624 0,0.9399 0.64188,1.53595 0.66482,0.59602 1.78812,0.59602 z"
             id="path14051"
             style="font-size:10.5833px;fill:#ff9d57;fill-opacity:1;stroke:#ff9d57;stroke-width:1.47512;stroke-linecap:round;stroke-linejoin:round;stroke-opacity:1" />
          <path
             d="m 218.00355,141.25431 v -15.26778 h 1.81104 v 1.99445 q 0.50434,-1.03161 1.49009,-1.60472 1.00869,-0.59605 2.33832,-0.59605 1.49008,0 2.59047,0.71066 1.1233,0.68774 1.71935,1.99444 0.61896,1.28377 0.61896,3.07189 0,1.76521 -0.61896,3.07189 -0.59605,1.28379 -1.71935,1.99444 -1.10039,0.71066 -2.59047,0.71066 -1.28379,0 -2.29246,-0.57311 -1.00869,-0.57311 -1.49009,-1.5818 v 6.07503 z m 5.24972,-5.41021 q 1.55888,0 2.49878,-1.10038 0.93992,-1.1233 0.93992,-3.18652 0,-2.08614 -0.93992,-3.18652 -0.9399,-1.10038 -2.49878,-1.10038 -1.55886,0 -2.49878,1.10038 -0.9399,1.10038 -0.9399,3.18652 0,2.06322 0.9399,3.18652 0.93992,1.10038 2.49878,1.10038 z"
             id="path14053"
             style="font-size:10.5833px;fill:#ff9d57;fill-opacity:1;stroke:#ff9d57;stroke-width:1.47512;stroke-linecap:round;stroke-linejoin:round;stroke-opacity:1" />
          <path
             d="m 231.64333,137.12787 v -16.16182 h 6.46473 q 2.49878,0 3.85132,1.1233 1.37548,1.10039 1.37548,3.09481 0,1.32964 -0.68774,2.26954 -0.68774,0.93992 -1.90273,1.37548 1.39839,0.36679 2.17782,1.35254 0.80235,0.98578 0.80235,2.49878 0,2.15491 -1.39839,3.30115 -1.3984,1.14622 -3.94302,1.14622 z m 1.83395,-8.94057 h 4.35568 q 3.645,0 3.645,-2.84265 0,-2.86557 -3.645,-2.86557 h -4.35568 z m 0,7.42756 h 4.72247 q 3.66794,0 3.66794,-2.95728 0,-2.95728 -3.66794,-2.95728 h -4.72247 z"
             id="path14055"
             style="font-size:10.5833px;fill:#ff9d57;fill-opacity:1;stroke:#ff9d57;stroke-width:1.47512;stroke-linecap:round;stroke-linejoin:round;stroke-opacity:1" />
          <path
             d="m 251.8199,131.09569 q -1.47441,0 -2.55428,-0.64376 -1.07985,-0.64375 -1.68208,-1.80669 -0.58147,-1.18367 -0.58147,-2.7827 0,-1.59901 0.58147,-2.76195 0.60223,-1.18369 1.68208,-1.82744 1.07987,-0.64376 2.55428,-0.64376 1.45365,0 2.53351,0.64376 1.10063,0.64375 1.68209,1.82744 0.60224,1.16294 0.60224,2.76195 0,1.59903 -0.60224,2.7827 -0.58146,1.16294 -1.68209,1.80669 -1.07986,0.64376 -2.53351,0.64376 z m 0,-1.34981 q 1.41211,0 2.26355,-0.9968 0.85142,-1.01755 0.85142,-2.88654 0,-1.88975 -0.85142,-2.88655 -0.85144,-0.99679 -2.26355,-0.99679 -1.43289,0 -2.28431,0.99679 -0.83065,0.9968 -0.83065,2.88655 0,1.86899 0.83065,2.88654 0.85142,0.9968 2.28431,0.9968 z"
             id="path14057"
             style="font-size:10.5833px;fill:#348aa7;fill-opacity:1;stroke:#348aa7;stroke-width:1.33625;stroke-linecap:round;stroke-linejoin:round;stroke-opacity:1" />
          <path
             d="m 263.37937,131.09569 q -1.47442,0 -2.55427,-0.64376 -1.07986,-0.64375 -1.68209,-1.80669 -0.58146,-1.18367 -0.58146,-2.7827 0,-1.59901 0.58146,-2.76195 0.60223,-1.18369 1.68209,-1.82744 1.07985,-0.64376 2.55427,-0.64376 1.45367,0 2.53352,0.64376 1.10062,0.64375 1.68208,1.82744 0.60223,1.16294 0.60223,2.76195 0,1.59903 -0.60223,2.7827 -0.58146,1.16294 -1.68208,1.80669 -1.07985,0.64376 -2.53352,0.64376 z m 0,-1.34981 q 1.41213,0 2.26355,-0.9968 0.85143,-1.01755 0.85143,-2.88654 0,-1.88975 -0.85143,-2.88655 -0.85142,-0.99679 -2.26355,-0.99679 -1.43287,0 -2.28431,0.99679 -0.83066,0.9968 -0.83066,2.88655 0,1.86899 0.83066,2.88654 0.85144,0.9968 2.28431,0.9968 z"
             id="path14059"
             style="font-size:10.5833px;fill:#348aa7;fill-opacity:1;stroke:#348aa7;stroke-width:1.33625;stroke-linecap:round;stroke-linejoin:round;stroke-opacity:1" />
          <path
             d="m 272.40465,137.12787 v -16.16182 h 1.8569 v 9.97218 h 0.0459 l 5.15803,-4.9517 h 2.36123 l -5.59361,5.36435 6.07503,5.77699 h -2.36124 l -5.63944,-5.2268 h -0.0459 v 5.2268 z"
             id="path14061"
             style="font-size:10.5833px;fill:#ff9d57;fill-opacity:1;stroke:#ff9d57;stroke-width:1.47512;stroke-linecap:round;stroke-linejoin:round;stroke-opacity:1" />
          <path
             style="fill:#000000;fill-opacity:0;stroke:#348aa7;stroke-width:2.90924;stroke-linecap:round;stroke-linejoin:miter;stroke-miterlimit:4;stroke-dasharray:none;stroke-opacity:1"
             d="m 247.33645,133.32509 c 0,0 11.22237,12.61984 20.68121,-0.15205"
             id="path14232" />
        </g>
      </g>
    </g>
  </g>
</svg>
